<svg width="541" height="415" viewBox="0 0 541 415" fill="none" xmlns="http://www.w3.org/2000/svg">
<path d="M149.451 0.267865L149.272 0.266846C149.332 0.266846 149.392 0.267187 149.451 0.267865L231.015 0.733947C233.974 0.733947 241.198 3.06945 246.43 12.4115C251.661 21.7535 265.784 45.6748 273.102 56.7295L232.884 127.318L160.016 5.40496C158.937 3.70936 155.324 0.335084 149.451 0.267865Z" fill="#DDE0FF"/>
<path d="M149.451 0.267865L149.272 0.266846C149.332 0.266846 149.392 0.267187 149.451 0.267865L231.015 0.733947C233.974 0.733947 241.198 3.06945 246.43 12.4115C251.661 21.7535 265.784 45.6748 273.102 56.7295L232.884 127.318L160.016 5.40496C158.937 3.70936 155.324 0.335084 149.451 0.267865Z" fill="#FFDED3"/>
<path d="M149.272 0.266846L231.015 0.733947C233.974 0.733947 241.198 3.06945 246.43 12.4115C251.661 21.7535 265.784 45.6748 273.102 56.7295L232.884 127.318L160.016 5.40496C158.926 3.69226 155.251 0.266846 149.272 0.266846Z" stroke="#FFDED3" stroke-width="0.533623" stroke-linejoin="round"/>
<path d="M314.338 0.267865L314.159 0.266846C314.219 0.266846 314.279 0.267187 314.338 0.267865L395.902 0.733947C398.861 0.733947 406.085 3.06945 411.317 12.4115C416.548 21.7535 432.492 46.1985 439.81 57.2532L397.771 127.318L324.903 5.40496C323.824 3.70936 320.211 0.335084 314.338 0.267865Z" fill="#DDE0FF"/>
<path d="M314.338 0.267865L314.159 0.266846C314.219 0.266846 314.279 0.267187 314.338 0.267865L395.902 0.733947C398.861 0.733947 406.085 3.06945 411.317 12.4115C416.548 21.7535 432.492 46.1985 439.81 57.2532L397.771 127.318L324.903 5.40496C323.824 3.70936 320.211 0.335084 314.338 0.267865Z" fill="#FFDED3"/>
<path d="M314.159 0.266846L395.902 0.733947C398.861 0.733947 406.085 3.06945 411.317 12.4115C416.548 21.7535 432.492 46.1985 439.81 57.2532L397.771 127.318L324.903 5.40496C323.813 3.69226 320.138 0.266846 314.159 0.266846Z" stroke="#FFDED3" stroke-width="0.533623" stroke-linejoin="round"/>
<path d="M524.355 205.793L436.073 51.6492L384.225 104.432C407.58 144.602 455.318 226.065 457.56 230.549C460.362 236.154 464.566 246.898 457.56 259.509C451.955 269.599 440.588 271.498 435.606 271.187H150.207L131.523 304.351C129.343 307.776 126.291 317.43 131.523 328.64C136.754 339.851 148.65 342.031 153.944 341.719H447.751C467.836 342.809 512.304 335.18 529.493 295.943C546.683 256.707 533.23 219.494 524.355 205.793Z" fill="#DDE0FF"/>
<path d="M524.355 205.793L436.073 51.6492L384.225 104.432C407.58 144.602 455.318 226.065 457.56 230.549C460.362 236.154 464.566 246.898 457.56 259.509C451.955 269.599 440.588 271.498 435.606 271.187H150.207L131.523 304.351C129.343 307.776 126.291 317.43 131.523 328.64C136.754 339.851 148.65 342.031 153.944 341.719H447.751C467.836 342.809 512.304 335.18 529.493 295.943C546.683 256.707 533.23 219.494 524.355 205.793Z" fill="#FFDED3"/>
<path d="M524.355 205.793L436.073 51.6492L384.225 104.432C407.58 144.602 455.318 226.065 457.56 230.549C460.362 236.154 464.566 246.898 457.56 259.509C451.955 269.599 440.588 271.498 435.606 271.187H150.207L131.523 304.351C129.343 307.776 126.291 317.43 131.523 328.64C136.754 339.851 148.65 342.031 153.944 341.719H447.751C467.836 342.809 512.304 335.18 529.493 295.943C546.683 256.707 533.23 219.494 524.355 205.793Z" stroke="#FFDED3" stroke-width="0.533623"/>
<path d="M232.129 255.308L231.95 255.309C232.01 255.309 232.07 255.309 232.129 255.308L313.693 254.842C316.651 254.842 323.876 252.507 329.107 243.165C334.339 233.823 350.283 209.378 357.601 198.323L315.562 128.258L242.694 250.171C241.615 251.867 238.002 255.241 232.129 255.308Z" fill="#0E2343"/>
<path d="M275.126 56.7871L304.553 8.20855C306.266 5.71734 310.889 0.267822 314.626 0.267822C319.297 0.267822 323.259 2.98239 326.507 8.20855C331.442 16.1493 414.322 157.214 458.697 233.351C461.499 238.957 463.835 251.568 458.697 258.575C451.665 268.164 444.793 270.073 437.677 270.72C432.539 271.187 422.73 271.187 422.73 271.187H397.973L315.764 127.787L250.633 240.358C242.226 253.437 238.395 255.772 232.416 255.772C226.437 255.772 220.739 250.634 209.061 230.082L149.942 127.787L58.3902 288.002C51.228 301.393 41.668 336.581 60.7257 370.212C66.029 379.571 74.2403 387.026 83.4513 392.93C95.8994 399.726 108.258 405.018 119.331 408.586C130.878 411.96 139.928 413.374 142.001 413.653C135.561 413.045 127.824 411.323 119.331 408.586C108.345 405.377 95.0987 400.394 83.4513 392.93C32.0447 364.864 -20.8912 311.154 8.8775 247.365C51.384 156.28 98.8723 69.2432 138.265 9.14275C140.289 6.18444 145.364 0.267822 149.475 0.267822C154.613 0.267822 156.949 0.734924 164.422 12.4125C170.401 21.7545 212.378 93.221 232.619 127.787L275.126 56.7871Z" fill="url(#paint0_linear_1_542)" stroke="#FF6938" stroke-width="0.533623"/>
<path d="M77.8941 256.231L77.3395 256.242C77.5363 256.242 77.7209 256.238 77.8941 256.231L148.339 254.841C151.297 254.841 158.522 257.176 163.753 247.834C168.985 238.492 184.773 211.4 191.312 199.256L150.207 128.256L79.2079 251.104C78.1539 252.76 82.983 256.018 77.8941 256.231Z" fill="#2B2D42"/>
<path d="M77.3395 256.242L148.339 254.841C151.297 254.841 158.522 257.176 163.753 247.834C168.985 238.492 184.773 211.4 191.312 199.256L150.207 128.256L79.2079 251.104C78.118 252.817 83.3184 256.242 77.3395 256.242Z" stroke="#2B2D42" stroke-width="0.533623" stroke-linejoin="round"/>
<path d="M171.694 233.371L132.457 302.502C130.278 306.395 126.665 316.422 129.655 325.39C133.392 336.6 141.332 342.206 153.944 342.206H450.554C465.345 342.206 499.412 336.694 517.349 314.647C535.983 291.742 539.453 262.708 538.217 247.922C536.99 240.596 535.866 237.541 536.967 240.845C537.52 242.501 537.965 244.918 538.217 247.922C540.63 262.347 543.438 293.327 530.428 324.923C514.733 363.038 488.077 384.089 476.711 389.85C465.812 397.168 437.755 412.084 412.718 413.205C387.682 414.326 222.919 413.672 143.668 413.205C124.984 413.828 82.1972 406.105 60.5237 370.232C33.4318 325.39 60.5237 285.686 60.5237 284.285C60.5237 283.164 99.4489 215.31 118.911 181.523L171.694 233.371Z" fill="#2B2D42" stroke="#2B2D42" stroke-width="0.533623"/>
<defs>
<linearGradient id="paint0_linear_1_542" x1="-14.3058" y1="210.045" x2="482.381" y2="210.045" gradientUnits="userSpaceOnUse">
<stop stop-color="#FF490E"/>
<stop offset="0.9999" stop-color="#FF7B02" stop-opacity="0.9"/>
</linearGradient>
</defs>
</svg>
