<svg width="1813" height="430" viewBox="0 0 1813 430" fill="none" xmlns="http://www.w3.org/2000/svg">
<g filter="url(#filter0_d_1_478)">
<path d="M216.636 236.741L216.498 236.742C216.544 236.742 216.59 236.741 216.636 236.741L279.76 236.384C282.049 236.384 287.641 234.596 291.689 227.446C295.738 220.296 308.077 201.586 313.741 193.125L281.206 139.498L224.812 232.809C223.977 234.107 221.181 236.689 216.636 236.741Z" fill="#FFAB8F"/>
<path d="M250.45 83.7055L273.097 46.1936C274.415 44.2699 277.719 43.1469 280.595 43.1469C284.19 43.1469 287.493 42.158 289.993 46.1936C293.791 52.3253 357.576 161.254 391.727 220.047C393.884 224.375 395.681 234.114 391.727 239.524C386.315 246.928 381.026 248.403 375.55 248.902C371.596 249.263 364.047 249.263 364.047 249.263H344.994L281.725 138.531L231.6 225.457C225.04 233.5 224.001 233.5 219.4 233.5C214.798 233.5 212.313 231.322 203.325 215.452L154.107 138.531L83.6487 262.248C78.1366 272.588 70.7792 299.76 85.4461 325.729C87.1445 328.737 89.2273 331.436 91.5895 333.86C111.091 345.832 131.827 353.297 145.797 355.104C146.722 355.206 147.394 355.275 147.771 355.326C147.129 355.265 146.471 355.191 145.797 355.104C137.345 354.174 107.849 350.546 91.5895 333.86C56.153 312.106 24.7975 275.472 45.5434 230.868C78.2567 160.533 114.804 93.3239 145.12 46.915C147.029 43.9929 152.001 42.8649 153.411 42.8649C156.513 42.8649 160.631 43.1537 166.383 52.171C170.984 59.3849 202.159 111.839 217.736 138.531L250.45 83.7055Z" fill="url(#paint0_linear_1_478)"/>
<path d="M250.45 83.7055L273.097 46.1936C274.415 44.2699 277.719 43.1469 280.595 43.1469C284.19 43.1469 287.493 42.158 289.993 46.1936C293.791 52.3253 357.576 161.254 391.727 220.047C393.884 224.375 395.681 234.114 391.727 239.524C386.315 246.928 381.026 248.403 375.55 248.902C371.596 249.263 364.047 249.263 364.047 249.263H344.994L281.725 138.531L231.6 225.457C225.04 233.5 224.001 233.5 219.4 233.5C214.798 233.5 212.313 231.322 203.325 215.452L154.107 138.531L83.6487 262.248C78.1366 272.588 70.7792 299.76 85.4461 325.729C87.1445 328.737 89.2273 331.436 91.5895 333.86C111.091 345.832 131.827 353.297 145.797 355.104C146.722 355.206 147.394 355.275 147.771 355.326C147.129 355.265 146.471 355.191 145.797 355.104C137.345 354.174 107.849 350.546 91.5895 333.86C56.153 312.106 24.7975 275.472 45.5434 230.868C78.2567 160.533 114.804 93.3239 145.12 46.915C147.029 43.9929 152.001 42.8649 153.411 42.8649C156.513 42.8649 160.631 43.1537 166.383 52.171C170.984 59.3849 202.159 111.839 217.736 138.531L250.45 83.7055Z" fill="url(#paint1_linear_1_478)"/>
<path d="M250.45 83.7055L273.097 46.1936C274.415 44.2699 277.719 43.1469 280.595 43.1469C284.19 43.1469 287.493 42.158 289.993 46.1936C293.791 52.3253 357.576 161.254 391.727 220.047C393.884 224.375 395.681 234.114 391.727 239.524C386.315 246.928 381.026 248.403 375.55 248.902C371.596 249.263 364.047 249.263 364.047 249.263H344.994L281.725 138.531L231.6 225.457C225.04 233.5 224.001 233.5 219.4 233.5C214.798 233.5 212.313 231.322 203.325 215.452L154.107 138.531L83.6487 262.248C78.1366 272.588 70.7792 299.76 85.4461 325.729C87.1445 328.737 89.2273 331.436 91.5895 333.86C111.091 345.832 131.827 353.297 145.797 355.104C146.722 355.206 147.394 355.275 147.771 355.326C147.129 355.265 146.471 355.191 145.797 355.104C137.345 354.174 107.849 350.546 91.5895 333.86C56.153 312.106 24.7975 275.472 45.5434 230.868C78.2567 160.533 114.804 93.3239 145.12 46.915C147.029 43.9929 152.001 42.8649 153.411 42.8649C156.513 42.8649 160.631 43.1537 166.383 52.171C170.984 59.3849 202.159 111.839 217.736 138.531L250.45 83.7055Z" stroke="#FF6938" stroke-width="6.17337"/>
<path d="M250.45 83.7055L273.097 46.1936C274.415 44.2699 277.719 43.1469 280.595 43.1469C284.19 43.1469 287.493 42.158 289.993 46.1936C293.791 52.3253 357.576 161.254 391.727 220.047C393.884 224.375 395.681 234.114 391.727 239.524C386.315 246.928 381.026 248.403 375.55 248.902C371.596 249.263 364.047 249.263 364.047 249.263H344.994L281.725 138.531L231.6 225.457C225.04 233.5 224.001 233.5 219.4 233.5C214.798 233.5 212.313 231.322 203.325 215.452L154.107 138.531L83.6487 262.248C78.1366 272.588 70.7792 299.76 85.4461 325.729C87.1445 328.737 89.2273 331.436 91.5895 333.86C111.091 345.832 131.827 353.297 145.797 355.104C146.722 355.206 147.394 355.275 147.771 355.326C147.129 355.265 146.471 355.191 145.797 355.104C137.345 354.174 107.849 350.546 91.5895 333.86C56.153 312.106 24.7975 275.472 45.5434 230.868C78.2567 160.533 114.804 93.3239 145.12 46.915C147.029 43.9929 152.001 42.8649 153.411 42.8649C156.513 42.8649 160.631 43.1537 166.383 52.171C170.984 59.3849 202.159 111.839 217.736 138.531L250.45 83.7055Z" stroke="url(#paint2_linear_1_478)" stroke-width="6.17337"/>
<path d="M280.608 40.0665L280.47 40.0657C280.516 40.0657 280.562 40.0659 280.608 40.0665L343.505 40.4259C345.787 40.4259 351.358 42.2269 355.392 49.4308C359.426 56.6348 371.721 75.4852 377.364 84.01L344.946 138.04L288.755 44.0279C287.923 42.7203 285.137 40.1183 280.608 40.0665Z" fill="#2B2D42"/>
<path d="M153.463 40.0665L153.326 40.0657C153.372 40.0657 153.418 40.0659 153.463 40.0665L216.36 40.4259C218.642 40.4259 224.213 42.2269 228.247 49.4308C232.281 56.6348 244.576 75.4852 250.219 84.01L217.801 138.04L161.61 44.0279C160.778 42.7203 157.993 40.1183 153.463 40.0665Z" fill="#2B2D42"/>
<path d="M442.577 198.624L374.499 79.7585L334.517 120.461C352.527 151.438 389.339 214.257 391.068 217.715C393.229 222.037 396.471 230.322 391.068 240.047C386.746 247.827 377.981 249.292 374.139 249.052H154.057L139.649 274.626C137.968 277.268 135.615 284.712 139.649 293.357C143.684 302.001 152.857 303.682 156.939 303.442H383.504C398.993 304.283 433.283 298.399 446.539 268.143C459.794 237.886 449.42 209.19 442.577 198.624Z" fill="#2B2D42"/>
<path d="M98.3175 237.368L97.8899 237.376C98.0416 237.376 98.184 237.373 98.3175 237.368L152.64 236.295C154.921 236.295 160.492 238.096 164.527 230.892C168.561 223.688 180.736 202.797 185.778 193.432L154.081 138.682L99.3307 233.414C98.5179 234.691 102.242 237.204 98.3175 237.368Z" fill="#FFAB8F"/>
<path d="M170.65 219.772L140.394 273.082C138.713 276.083 135.927 283.816 138.232 290.731C141.114 299.376 147.237 303.699 156.963 303.699H385.689C397.095 303.699 423.366 299.448 437.198 282.447C451.567 264.785 454.243 242.395 453.289 230.993C452.344 225.344 451.477 222.988 452.326 225.535C452.752 226.813 453.095 228.676 453.289 230.993C455.151 242.117 457.316 266.006 447.283 290.371C435.18 319.764 414.625 335.996 405.86 340.439C397.456 346.082 375.82 357.584 356.513 358.449C337.206 359.313 210.152 358.809 149.038 358.449C134.631 358.929 101.636 352.974 84.9231 325.311C64.0315 290.731 84.9231 260.115 84.9231 259.034C84.9231 258.17 114.94 205.845 129.948 179.79L170.65 219.772Z" fill="#FFAB8F"/>
<path d="M750.257 298.458C732.337 295.818 720.964 278.541 723.995 260.683C727.337 240.989 746.72 228.597 766.506 231.34C777.812 232.908 788.471 233.691 798.482 233.691C818.901 233.691 835.318 232.864 847.735 231.208V210.516L810.485 207.205C776.822 204.17 753.645 196.169 740.952 183.202C728.536 169.959 723.992 150.508 723.992 124.85C723.992 89.5348 729.915 65.2558 745.091 52.0127C760.543 38.7696 786.618 32.1481 823.315 32.1481C847.433 32.1481 870.002 33.6376 891.021 36.6167C908.988 39.1632 920.481 56.3582 917.68 74.2874C914.713 93.271 896.892 105.999 877.775 104.068C867.44 103.024 858.392 102.502 850.632 102.502C835.18 102.502 822.074 103.192 811.313 104.571V124.85L841.113 127.747C877.258 131.333 902.229 140.024 916.026 153.819C929.822 167.338 936.72 186.237 936.72 210.516C936.72 227.897 934.375 242.658 929.684 254.797C924.993 266.661 919.337 275.766 912.715 282.111C906.368 288.181 897.263 292.871 885.398 296.182C873.534 299.493 863.048 301.424 853.943 301.976C845.113 302.804 833.249 303.217 818.349 303.217C794.492 303.217 771.795 301.631 750.257 298.458Z" fill="#2B2D42"/>
<path d="M1041.56 265.043C1037.15 284.003 1020.26 297.424 1000.79 297.424C973.411 297.424 953.405 271.57 960.275 245.068L1001.77 85.0125C1008.82 57.7841 1033.4 38.7697 1061.52 38.7697H1093.87C1122 38.7697 1146.57 57.7841 1153.63 85.0125L1195.12 245.068C1201.99 271.57 1181.98 297.424 1154.61 297.424C1135.14 297.424 1118.24 284.003 1113.84 265.042L1111.84 256.453H1043.55L1041.56 265.043ZM1075.42 118.228L1058.45 190.651H1096.53L1079.97 118.228H1075.42Z" fill="#2B2D42"/>
<path d="M1383.38 170.299C1383.38 187.327 1369.58 201.131 1352.55 201.131H1313.02V255.754C1313.02 278.613 1294.49 297.143 1271.63 297.143C1248.78 297.143 1230.25 278.613 1230.25 255.754V100.223C1230.25 66.128 1257.88 38.4889 1291.98 38.4889H1366.83C1385.12 38.4889 1399.94 53.3117 1399.94 71.5966C1399.94 89.8815 1385.12 104.704 1366.83 104.704H1313.02V139.467H1352.55C1369.58 139.467 1383.38 153.271 1383.38 170.299Z" fill="#2B2D42"/>
<path d="M1463.3 297.01C1440.44 297.01 1421.91 278.48 1421.91 255.621V79.7443C1421.91 56.886 1440.44 38.3558 1463.3 38.3558C1486.16 38.3558 1504.69 56.886 1504.69 79.7442V255.621C1504.69 278.48 1486.16 297.01 1463.3 297.01Z" fill="#2B2D42"/>
<path d="M1726.09 239.127C1739.78 265.503 1720.64 297.01 1690.92 297.01C1675.22 297.01 1661 287.739 1654.67 273.372L1631.15 220.034H1613.35V255.621C1613.35 278.479 1594.82 297.01 1571.97 297.01C1549.11 297.01 1530.58 278.48 1530.58 255.621V100.09C1530.58 65.9949 1558.22 38.3558 1592.31 38.3558H1660.95C1720.27 38.3558 1749.94 68.5666 1749.94 128.988C1749.94 170.373 1737.11 197.687 1711.44 210.93L1726.09 239.127ZM1613.35 104.571V156.302H1632.39C1642.33 156.302 1649.5 155.336 1653.91 153.405C1658.6 151.198 1660.95 146.37 1660.95 138.92V121.953C1660.95 114.504 1658.6 109.813 1653.91 107.882C1649.5 105.675 1642.33 104.571 1632.39 104.571H1613.35Z" fill="#2B2D42"/>
<path d="M515.621 43.8694C537.731 43.8694 555.655 61.7935 555.655 83.9041V234.562H584.08C594.222 234.562 601.162 233.357 604.898 230.948C608.635 228.271 610.503 222.381 610.503 213.279V82.739C610.503 60.1654 629.156 42.0554 651.72 42.7218C673.36 43.361 690.572 61.0888 690.572 82.739V187.179C690.572 209.933 689.104 228.271 686.168 242.191C683.233 256.111 677.761 267.89 669.754 277.527C661.747 287.165 650.804 293.857 636.926 297.605C623.047 301.353 605.032 303.227 582.879 303.227C560.727 303.227 542.711 301.353 528.832 297.605C515.22 293.857 504.411 287.165 496.404 277.527C488.397 267.89 482.926 256.111 479.99 242.191C477.054 228.271 475.586 209.933 475.586 187.179V83.9041C475.586 61.7936 493.51 43.8694 515.621 43.8694Z" fill="#2B2D42"/>
</g>
<defs>
<filter id="filter0_d_1_478" x="-50.9158" y="-29.8918" width="1887.58" height="500.245" filterUnits="userSpaceOnUse" color-interpolation-filters="sRGB">
<feFlood flood-opacity="0" result="BackgroundImageFix"/>
<feColorMatrix in="SourceAlpha" type="matrix" values="0 0 0 0 0 0 0 0 0 0 0 0 0 0 0 0 0 0 127 0" result="hardAlpha"/>
<feOffset dy="24.6935"/>
<feGaussianBlur stdDeviation="43.3667"/>
<feComposite in2="hardAlpha" operator="out"/>
<feColorMatrix type="matrix" values="0 0 0 0 0.168627 0 0 0 0 0.176471 0 0 0 0 0.258824 0 0 0 0.37 0"/>
<feBlend mode="normal" in2="BackgroundImageFix" result="effect1_dropShadow_1_478"/>
<feBlend mode="normal" in="SourceGraphic" in2="effect1_dropShadow_1_478" result="shape"/>
</filter>
<linearGradient id="paint0_linear_1_478" x1="27.7014" y1="202.05" x2="409.954" y2="202.05" gradientUnits="userSpaceOnUse">
<stop stop-color="#FF490E"/>
<stop offset="0.9999" stop-color="#FF7B02" stop-opacity="0.9"/>
</linearGradient>
<linearGradient id="paint1_linear_1_478" x1="27.7014" y1="202.05" x2="409.954" y2="202.05" gradientUnits="userSpaceOnUse">
<stop stop-color="#FF490E"/>
<stop offset="0.9999" stop-color="#FF7B02" stop-opacity="0.9"/>
</linearGradient>
<linearGradient id="paint2_linear_1_478" x1="27.7014" y1="202.05" x2="409.954" y2="202.05" gradientUnits="userSpaceOnUse">
<stop stop-color="#FF490E"/>
<stop offset="0.9999" stop-color="#FF7B02" stop-opacity="0.9"/>
</linearGradient>
</defs>
</svg>
